HIERARCHY
ROOT Hips
{
	OFFSET	0.00	0.00	0.00
	CHANNELS 6 Xposition Yposition Zposition Zrotation Xrotation Yrotation
	JOINT LeftUpLeg
	{
		OFFSET	 0.126116	-0.014019	-0.065224
		CHANNELS 3 Zrotation Xrotation Yrotation
		JOINT LeftLeg
		{
			OFFSET	 0.000000	 0.000000	 0.569914
			CHANNELS 3 Zrotation Xrotation Yrotation
			JOINT LeftFoot
			{
				OFFSET	 0.000000	 0.000000	 0.544423
				CHANNELS 3 Zrotation Xrotation Yrotation
				JOINT LeftToeBase
				{
					OFFSET	 0.000000	 0.000000	 0.207117
					CHANNELS 3 Zrotation Xrotation Yrotation
					End Site
					{
						OFFSET	 0.000000	 0.000000	 0.207117
					}
				}
			}
		}
	}
	JOINT RightUpLeg
	{
		OFFSET	-0.124023	-0.008373	-0.065224
		CHANNELS 3 Zrotation Xrotation Yrotation
		JOINT RightLeg
		{
			OFFSET	 0.000000	 0.000000	 0.570047
			CHANNELS 3 Zrotation Xrotation Yrotation
			JOINT RightFoot
			{
				OFFSET	 0.000000	 0.000000	 0.544354
				CHANNELS 3 Zrotation Xrotation Yrotation
				JOINT RightToeBase
				{
					OFFSET	 0.000000	 0.000000	 0.207540
					CHANNELS 3 Zrotation Xrotation Yrotation
					End Site
					{
						OFFSET	 0.000000	 0.000000	 0.207540
					}
				}
			}
		}
	}
	JOINT Spine
	{
		OFFSET	 0.000184	-0.007763	 0.117403
		CHANNELS 3 Zrotation Xrotation Yrotation
		JOINT Spine1
		{
			OFFSET	 0.000000	 0.000000	 0.137269
			CHANNELS 3 Zrotation Xrotation Yrotation
			JOINT Spine2
			{
				OFFSET	 0.000000	 0.000000	 0.156879
				CHANNELS 3 Zrotation Xrotation Yrotation
				JOINT LeftShoulder
				{
					OFFSET	 0.080501	-0.002496	 0.160144
					CHANNELS 3 Zrotation Xrotation Yrotation
					JOINT LeftArm
					{
						OFFSET	 0.000000	 0.000000	 0.164363
						CHANNELS 3 Zrotation Xrotation Yrotation
						JOINT LeftForeArm
						{
							OFFSET	 0.000000	 0.000000	 0.364576
							CHANNELS 3 Zrotation Xrotation Yrotation
							JOINT LeftHand
							{
								OFFSET	 0.000000	 0.000000	 0.360812
								CHANNELS 3 Zrotation Xrotation Yrotation
								JOINT LeftHandIndex1
								{
									OFFSET	 0.000000	 0.000000	 0.086006
									CHANNELS 3 Zrotation Xrotation Yrotation
									JOINT LeftHandIndex2
									{
										OFFSET	 0.000000	 0.000000	 0.047236
										CHANNELS 3 Zrotation Xrotation Yrotation
										JOINT LeftHandIndex3
										{
											OFFSET	-0.004284	-0.000551	 0.038166
											CHANNELS 3 Zrotation Xrotation Yrotation
											End Site
											{
												OFFSET	-0.004284	-0.000551	 0.038166
											}
										}
									}
								}
							}
						}
					}
				}
				JOINT Neck
				{
					OFFSET	 0.000000	 0.000000	 0.176489
					CHANNELS 3 Zrotation Xrotation Yrotation
					JOINT Head
					{
						OFFSET	 0.000000	-0.001747	 0.077940
						CHANNELS 3 Zrotation Xrotation Yrotation
						End Site
						{
							OFFSET	 0.000000	-0.001747	 0.077940
						}
					}
				}
				JOINT RightShoulder
				{
					OFFSET	-0.080363	 0.000306	 0.159706
					CHANNELS 3 Zrotation Xrotation Yrotation
					JOINT RightArm
					{
						OFFSET	 0.000000	 0.000000	 0.164196
						CHANNELS 3 Zrotation Xrotation Yrotation
						JOINT RightForeArm
						{
							OFFSET	 0.000000	 0.000000	 0.365611
							CHANNELS 3 Zrotation Xrotation Yrotation
							JOINT RightHand
							{
								OFFSET	 0.000000	 0.000000	 0.360648
								CHANNELS 3 Zrotation Xrotation Yrotation
								JOINT RightHandIndex1
								{
									OFFSET	 0.000000	 0.000000	 0.069977
									CHANNELS 3 Zrotation Xrotation Yrotation
									JOINT RightHandIndex2
									{
										OFFSET	 0.000000	 0.000000	 0.052305
										CHANNELS 3 Zrotation Xrotation Yrotation
										JOINT RightHandIndex3
										{
											OFFSET	 0.009002	-0.000782	 0.042196
											CHANNELS 3 Zrotation Xrotation Yrotation
											End Site
											{
												OFFSET	 0.009002	-0.000782	 0.042196
											}
										}
									}
								}
							}
						}
					}
				}
			}
		}
	}
}
MOTION
Frames:    6
Frame Time: 0.03333334
-0.082441	 6.660998	 1.252049	-99.277970	 1.867848	 0.969410	-49.377960	-11.186280	-175.619200	 17.287430	-40.602950	 5.383714	-93.873360	 76.183650	 70.557850	-2.179022	 47.953800	-0.513899	 33.964340	-10.732410	 175.428900	-10.004220	-46.554040	-1.389669	 44.614010	 84.650380	-26.193730	 1.962586	 56.281820	 0.848653	-17.431340	 5.354522	 2.283537	-15.701340	 8.898138	-11.164950	 2.868793	-23.774070	 7.744046	-91.229230	 83.958370	 178.242500	 83.361340	 57.068490	-79.966720	 0.257915	-15.443360	-43.312160	 28.802410	 3.964763	-12.619930	-11.838530	 9.693561	-26.563060	-5.213937	-0.202400	 3.566957	-1.378229	 35.397820	-2.634230	-2.081942	 4.239625	 3.338300	-6.001243	-12.602810	-15.973600	 87.535740	 87.563130	-176.557100	-11.267390	 74.300750	 3.701237	-8.140484	-0.229134	 0.455005	-22.087060	-4.654346	 9.275214	-0.905349	 25.220660	-61.773650	 5.070519	-0.690904	-9.399550	-2.350882	 35.473990	 5.254307
-0.082876	 6.677973	 1.252308	-95.675490	 2.250547	 1.451129	-51.399400	-11.012210	-176.753600	 18.039420	-41.551500	 5.991511	-95.351550	 75.334180	 72.019520	-2.202527	 46.677930	-0.471732	 31.969980	-9.530133	 177.020900	-8.258039	-44.125990	-0.116695	 49.083230	 83.886180	-32.114680	 1.965321	 56.200280	 0.844787	-17.601200	 5.011391	 1.831937	-15.679180	 9.876403	-10.935950	 3.573874	-24.783220	 7.747820	-91.229330	 83.958370	 178.242700	 86.082980	 58.907380	-81.811060	 0.712750	-16.166560	-43.730480	 28.685460	 2.895514	-11.835020	-11.564240	 9.733971	-25.628180	-5.213937	-0.202400	 3.566957	-1.378229	 35.397820	-2.634230	-0.494205	 4.507119	 1.211109	-4.509893	-14.103130	-12.747980	 87.541560	 87.558960	-176.563200	-9.469806	 74.198040	 2.447044	-7.482270	-0.225204	 0.460209	-21.409790	-4.700756	 9.271509	-1.442416	 24.486190	-62.121210	 5.070519	-0.690904	-9.399550	-2.350882	 35.473990	 5.254307
-0.083031	 6.699672	 1.252902	-91.451760	 2.874679	 1.893084	-53.538900	-10.865920	-178.163700	 19.233250	-42.344780	 6.900363	-96.532450	 74.355640	 72.977260	-2.221493	 45.565780	-0.436360	 29.130370	-8.090253	 178.424900	-6.363436	-41.181120	 1.137325	 53.582450	 83.533370	-38.017810	 2.082373	 52.201420	 0.671656	-17.731350	 4.879344	 1.531468	-15.536290	 10.658780	-11.186920	 5.058469	-26.434510	 8.369865	-91.229260	 83.958370	 178.242600	 90.177120	 62.096070	-84.039570	 1.032472	-16.791080	-44.195490	 27.351190	 1.464755	-10.434960	-11.102700	 9.594353	-23.875750	-5.213937	-0.202400	 3.566957	-1.378229	 35.397820	-2.634230	 1.770106	 5.820186	-1.448412	-2.446786	-17.080530	-8.799362	 87.561090	 87.544970	-176.585100	-7.529029	 74.092410	 0.783659	-7.396826	-0.223880	 0.459227	-21.409250	-4.705930	 9.308303	-1.728618	 24.158930	-62.565750	 5.070519	-0.690904	-9.399550	-2.350882	 35.473990	 5.254307
-0.083032	 6.722273	 1.253408	-87.624300	 3.450526	 1.943866	-54.821170	-10.808120	-179.233600	 19.734790	-42.670790	 7.288918	-94.982770	 73.842550	 71.598980	-2.263737	 42.750500	-0.351993	 26.212140	-7.203324	 178.882400	-4.536145	-39.725580	 2.273345	 55.292800	 84.049420	-40.801850	 2.049389	 53.442970	 0.722190	-17.524870	 4.671564	 1.453550	-15.146310	 11.013200	-10.938640	 6.700520	-27.680320	 8.908628	-91.229220	 83.958310	 178.242500	 94.737010	 67.079150	-87.314060	 1.819051	-17.007650	-43.142180	 24.477930	-0.604998	-8.258668	-11.083870	 8.859584	-23.240450	-5.213937	-0.202400	 3.566957	-1.378229	 35.397820	-2.634230	 4.443889	 7.038371	-4.719834	 0.225603	-19.698510	-3.840302	 87.597170	 87.518650	-176.629600	-6.186510	 73.845630	-0.085927	-7.236766	-0.222740	 0.460377	-21.380230	-4.695625	 9.365407	-0.792329	 25.545390	-62.500770	 5.070519	-0.690904	-9.399550	-2.350882	 35.473990	 5.254307
-0.084294	 6.756086	 1.253837	-82.774050	 3.553881	 1.971589	-54.741370	-10.390840	 179.933500	 19.981080	-43.084210	 7.516688	-93.314030	 73.651630	 70.231220	-2.269860	 42.295900	-0.338989	 21.871350	-6.043335	 178.174200	-1.876408	-39.070130	 3.925777	 70.479600	 86.073700	-57.233490	 2.133175	 50.062320	 0.590318	-16.360430	 4.663472	 1.526464	-13.878660	 11.412800	-10.206760	 8.653597	-28.708030	 9.557981	-91.229270	 83.958370	 178.242600	 97.554170	 73.645030	-89.025930	 1.591866	-15.453180	-40.884680	 18.597590	-3.259082	-5.536393	-10.859850	 8.691367	-22.335940	-5.213937	-0.202400	 3.566957	-1.378229	 35.397820	-2.634230	 7.961661	 8.769879	-8.243138	 4.009054	-23.068440	 2.857005	 87.726790	 87.418890	-176.798800	-6.059487	 72.761280	 0.974437	-5.749402	-0.211584	 0.466718	-20.459330	-4.549323	 9.596186	-1.288882	 24.960210	-63.198570	 5.070519	-0.690904	-9.399550	-2.350882	 35.473990	 5.254307
-0.084530	 6.765838	 1.254011	-81.458980	 3.633720	 2.003287	-54.923080	-10.386200	 179.701100	 20.228100	-43.325300	 7.722879	-92.492840	 73.486880	 69.484030	-2.316668	 38.261970	-0.229987	 20.652120	-5.566585	 178.058800	-1.158684	-38.467640	 4.324949	 74.779850	 86.503130	-61.911140	 2.156996	 48.945120	 0.550380	-15.907810	 4.655233	 1.475278	-13.401930	 11.371210	-9.908147	 8.987988	-28.843830	 9.555803	-91.229390	 83.958340	 178.242700	 96.854000	 75.380780	-87.902370	 1.090208	-14.831070	-40.641390	 16.721740	-3.989902	-4.942447	-10.742990	 8.791554	-22.001070	-5.213937	-0.202400	 3.566957	-1.378229	 35.397820	-2.634230	 8.839767	 9.150147	-9.012904	 4.988421	-23.733000	 4.511730	 87.726970	 87.418890	-176.798900	-5.163852	 72.858020	-1.183490	-5.527169	-1.658400	 3.698910	-20.069370	-4.653849	 9.512296	-1.362418	 24.887780	-63.361030	 5.070519	-0.690904	-9.399550	-2.350882	 35.473990	 5.254307
